<?xml version="1.0" encoding="UTF-8"?>
<!-- Created with Inkscape (http://www.inkscape.org/) -->
<svg width="512" height="512" version="1.2" baseProfile="tiny-ps" viewBox="0 0 512 512" xml:space="preserve" xmlns="http://www.w3.org/2000/svg"><title>ADOVA</title><path d="m86 256v-170h340v340h-340z" fill="#fdfdfd"/><path d="m242.55 
404.9c-28.23-2.9736-55.724-14.041-77.236-31.091-10.914-8.6501-23.316-21.571-23.316-24.292 0-1.2075 2.9898-8.9046 6.6441-17.105 3.6542-8.2002 10.825-24.809 15.934-36.909 6.3442-15.023 10.009-22.476 11.557-23.5 3.3388-2.2095 58.134-2.1869 60.263 0.0248 0.78108 0.81134 3.9898 8.0002 7.1304 15.975 10.989 27.904 20.734 44.736 34.171 59.019 8.8268 9.3829 16.52 15.118 27.8 20.727 10.524 5.232 13.365 6.0862 25.098 7.5468 12.244 1.5242 13.014 2.823 4.693 7.9208-18.909 11.585-42.43 19.471-64.715 21.696-12.144 1.2128-16.411 1.2109-28.024-0.0123zm102.42-38.173c-9.3053-3.1728-15.538-7.5275-25.366-17.722-17.081-17.719-25.19-33.53-55.13-107.5-28.612-70.689-32.871-79.048-47.914-94.048-8.9892-8.9632-17.031-13.656-26.646-15.547-6.0497-1.1902-8.3277-2.6508-7.1128-4.5606 1.3138-2.0652 15.65-8.5936 27.198-12.386 28.284-9.2876 54.382-10.334 82.495-3.3078 26.89 6.7204 49.053 19.212 68.931 38.85 21.349 21.091 34.005 43.966 41.22 74.5 3.6748 15.552 4.3115 38.245 1.5292 54.5-5.4026 31.564-18.406 57.56-39.644 79.252-5.5204 5.6387-10.712 10.24-11.537 10.224-0.825-0.0154-4.4354-1.0289-8.0231-2.2522zm-215.69-33.567c-0.56872-0.36161-3.0821-4.7447-5.5853-9.7402-26.213-52.312-19.675-114.77 16.761-160.1 8.7129-10.842 23.268-24.313 26.268-24.313 4.4655 0 11.274 4.2597 17.705 11.077 6.6735 7.0743 14.99 20.023 16.097 25.063 0.70014 3.1877 0.10492 4.5984-42.218 100.06-14.069 31.732-26.123 57.903-26.787 58.157-0.66385 0.25474-1.6723 0.1673-2.241-0.19431zm53.551-70.83c-0.91567-0.24251-1.9355-1.1462-2.2663-2.0083-0.33911-0.8837 4.967-14.926 12.165-32.193 10.715-25.704 13.088-30.626 14.766-30.626 1.7046 0 3.6021 4.2827 12.848 29 5.9665 15.95 11.077 30.395 11.356 32.099 0.49766 3.0353 0.40985 3.113-4.2378 3.75-5.1779 0.70971-41.937 0.69125-44.632-0.0224z" fill="#d1d1d1"/><path d="m241.5 403.91c-30.351-3.1188-59.076-15.846-82.695-36.638-4.2322-3.7257-9.8075-9.1601-12.39-12.076l-4.6949-5.3024 10.071-22.698c5.5393-12.484 12.846-29.448 16.238-37.698s6.8155-15.675 7.6084-16.5c1.2163-1.2655 5.9628-1.5 30.366-1.5 24.437 0 29.136 0.23269 30.289 1.5 0.75058 0.825 3.2942 6.675 5.6526 13 2.3584 6.325 6.9312 17.068 10.162 23.874 18.356 38.67 45.803 62.048 77.721 66.2 4.7692 0.62035 9.0492 1.4829 9.5112 1.9168 1.0665 1.0016-5.7399 5.6896-15.069 10.379-26.39 13.265-54.167 18.481-82.771 15.542zm103.99-37.711c-8.1929-2.833-14.496-7.0509-23.334-15.614-9.9386-9.6299-18.543-22.186-27.472-40.087-6.5063-13.045-10.464-22.43-36.574-86.726-17.603-43.346-20.588-49.802-28.599-61.835-11.479-17.243-25.273-27.968-39.758-30.912-3.7471-0.76157-5.75-1.6626-5.75-2.5866 0-1.9703 14.324-8.9747 26.531-12.973 13.961-4.5733 24.643-6.4854 40.062-7.1711 42.228-1.878 81.761 13.768 111.91 44.289 20.137 20.388 33.195 44.589 39.676 73.535 2.0019 8.9409 2.3222 13.085 2.3103 29.88-0.0153 21.47-1.197 29.815-6.5355 46.151-4.1991 12.85-9.9398 24.64-17.598 36.144-7.8902 11.852-24.586 29.72-27.725 29.672-1.1701-0.0179-4.3833-0.81271-7.1404-1.7661zm-216.21-34.401c-2.46-3.0461-10.277-19.996-13.051-28.3-18.509-55.402-2.8228-116.5 40.034-155.94 5.5572-5.1135 9.0077-7.5602 10.662-7.5602 4.4976 0 10.98 4.0972 17.324 10.95 6.6015 7.1302 15.753 22.049 15.753 25.681 7e-5 3.0072-65.992 152.73-68.391 155.17-1.0507 1.0669-1.4688 1.0669-2.3305 0zm52.709-71.315c-1.0834-1.3054 0.6588-6.2138 11.009-31.017 6.763-16.206 12.94-30 13.726-30.653 1.1187-0.92846 1.6253-0.87427 2.3284 0.24906 2.1978 3.5115 22.01 58.513 21.745 60.367-0.28832 2.0165-0.89536 2.0758-23.909 2.3368-20.333 0.23059-23.792 0.0524-24.9-1.283z" fill="#adadad"/><path d="m239.5 402.97c-23.734-2.6841-46.24-11.167-66.657-25.124-10.428-7.1283-28.586-23.976-29.419-27.296-0.36022-1.4352 2.5426-9.0998 8.5641-22.613 5.01-11.243 12.06-27.641 15.666-36.441s7.5005-16.821 8.6537-17.824c1.9393-1.6872 4.2232-1.8046 30.426-1.5642 18.515 0.16983 28.628 0.62857 29.19 1.3241 0.47354 0.58534 3.4379 7.5892 6.5875 15.564 11.21 28.385 20.282 43.701 34.759 58.685 17.973 18.603 33.63 26.788 57.067 29.835 4.708 0.61198 4.7907 0.68067 3.0869 2.5634-2.6522 2.9306-24.7 13.491-35.334 16.924-5.1754 1.6708-13.275 3.7165-18 4.5458-10.705 1.8791-33.98 2.6208-44.59 1.4209zm103.06-38.465c-16.546-6.8018-31.392-22.982-44.969-49.009-6.6491-12.747-9.3854-19.131-31.248-72.901-30.877-75.94-32.299-78.718-48.76-95.182-10.576-10.578-15.194-13.5-26.024-16.464-3.2714-0.89549-6.1154-2.1304-6.32-2.7441-0.89833-2.695 26.448-13.613 42.074-16.798 11.95-2.4357 38.275-2.9482 51.454-1.0018 60.723 8.9685 108.22 53.056 122.38 113.59 2.9268 12.512 3.6475 40.739 1.4257 55.837-4.4171 30.016-20.717 61.881-41.902 81.913-6.5283 6.173-8.9235 6.5379-18.115 2.7593zm-213.28-33.709c-2.6154-3.2407-9.7785-19.073-12.77-28.224-4.9628-15.183-6.7676-27.494-6.7551-46.076 0.0125-18.426 1.7412-30.743 6.3492-45.237 7.7954-24.519 24.097-49.843 41.822-64.966 8.7597-7.4742 10.039-7.5947 18.811-1.7711 8.7763 5.8266 22.264 25.349 22.264 32.226 0 2.7432-11.569 29.87-39.982 93.748-5.6268 12.65-13.818 31.1-18.204 41-8.5598 19.324-9.8175 21.428-11.535 19.3zm52.721-71.74c0-1.0864 5.2212-14.482 11.603-29.768 6.3815-15.286 11.83-28.355 12.107-29.042 1.538-3.8122 3.8186 0.72659 13.701 27.268 5.8403 15.685 10.725 29.522 10.854 30.75l0.23506 2.2322-24.25 0.26778c-23.573 0.2603-24.25 0.21262-24.25-1.7076z" fill="#919191"/><path d="m240.71 402.83c-24.592-2.5255-51.371-13.016-71.473-28-7.4081-5.5218-26.234-23.364-26.234-24.863 0-0.39582 3.6778-8.9874 8.173-19.092 4.4951-10.105 11.83-27.133 16.301-37.84 6.8847-16.49 8.5022-19.571 10.577-20.15 3.0701-0.85665 43.249-0.86902 51.781-0.0159l6.332 0.63312 4.9531 13c10.78 28.293 20.773 45.675 35.001 60.882 16.167 17.28 33.307 26.892 52.822 29.623 4.092 0.57267 7.692 1.2944 8 1.604 1.5183 1.5258-12.804 9.5797-27.182 15.285-10.227 4.0584-26.466 7.877-38.614 9.0799-11.783 1.1669-17.933 1.1372-30.436-0.14677zm104.78-37.626c-8.0552-2.7854-14.458-7.0192-22.722-15.025-8.699-8.4274-14.935-17.002-23.074-31.726-7.2841-13.178-9.9147-19.254-34.152-78.889-23.893-58.787-26.505-64.634-34.053-76.213-12.802-19.64-26.052-29.867-43.777-33.789-3.7665-0.83346-2.7645-2.0026 5.1153-5.9688 29.64-14.919 67.877-18.545 101.78-9.6512 53.084 13.927 93.202 55.555 106.07 110.06 3.675 15.568 4.3269 40.043 1.5049 56.5-3.6907 21.523-10.996 40.031-22.796 57.756-7.9104 11.882-23.632 28.759-26.747 28.711-1.1725-0.0179-4.3876-0.81271-7.1448-1.7661zm-221.28-44.951c-8.5619-17.882-12.566-32.824-14.185-52.931-2.9906-37.155 8.6141-74.366 32.436-104.01 8.7259-10.858 21.283-22.304 24.473-22.308 4.4167-6e-3 10.955 4.069 16.85 10.503 6.2559 6.8272 15.215 21.636 15.215 25.149 4e-5 1.9303-19.501 46.82-54.994 126.59-6.7906 15.262-12.865 27.75-13.498 27.75-0.63314 0-3.4673-4.8375-6.2982-10.75zm58.243-60.326c-0.95122-1.5391 23.472-59.924 25.068-59.924 1.4484 0 22.75 56.358 22.261 58.898-0.27013 1.4052-3.1559 1.6351-23.475 1.8704-16.197 0.18755-23.373-0.0665-23.854-0.84455z" fill="#6c6c6c"/><path d="m242.5 402.85c-26.062-2.9045-52.823-13.316-73.237-28.494-8.6658-6.443-25.263-22.8-25.263-24.898 0-0.82008 3.767-9.921 8.3711-20.224 4.6041-10.303 11.622-26.608 15.595-36.232s7.8736-18.174 8.668-18.999c1.2161-1.263 5.8557-1.5 29.37-1.5 23.549 0 28.139 0.23505 29.29 1.5 0.75054 0.825 3.2966 6.675 5.658 13 10.444 27.974 22.214 48.043 36.922 62.955 15.912 16.132 31.132 24.162 52.552 27.726 2.709 0.4507 5.0825 1.3025 5.2744 1.8928 0.41262 1.2692-16.023 10.022-26.7 14.22-10.055 3.9529-27.193 7.8945-39.856 9.1665-11.667 1.172-15.252 1.1568-26.644-0.11287zm105-37.251c-12.588-3.9981-28.789-17.747-38.996-33.096-11.196-16.835-15.268-25.793-45.006-99.002-10.276-25.299-20.636-50.048-23.022-54.998-8.5116-17.662-19.471-31.841-30.882-39.955-6.8488-4.87-10.721-6.6614-18.344-8.4874-2.8875-0.6916-5.25-1.5947-5.25-2.0068s4.3875-2.8124 9.75-5.3338c42.357-19.916 92.946-17.57 134.56 6.2392 16.144 9.2368 33.892 25.212 45.694 41.129 7.5679 10.207 18.059 31.338 21.441 43.187 5.2835 18.511 6.0583 24.148 6.0101 43.727-0.0409 16.623-0.3288 19.717-2.8381 30.5-4.9362 21.211-14.239 41.54-26.078 56.988-5.5975 7.3039-20.67 22.561-22.174 22.445-0.47566-0.0368-2.6648-0.63857-4.8648-1.3373zm-219.61-38.727c-12.704-24.401-18.013-45.291-18.01-70.869 4e-3 -30.189 9.3707-59.61 26.903-84.5 5.6821-8.067 17.07-20.514 24.332-26.593 4.9684-4.1598 5.0321-4.1802 9.1762-2.9386 8.8631 2.6555 28.108 26.668 28.017 34.957-0.0155 1.4162-7.4637 19.45-16.552 40.075-30.272 68.703-49.867 112.49-50.734 113.37-0.48077 0.48726-1.8566-1.0502-3.1321-3.5zm56.363-66.531c-0.6875-0.27741-1.2396-1.2544-1.2269-2.171 0.0358-2.5868 23.349-57.386 24.477-57.535 0.89533-0.11789 22.33 55.251 22.45 57.993 0.0272 0.61875-1.3567 1.4062-3.0755 1.75-3.6693 0.73386-40.794 0.70139-42.625-0.0373z" fill="#505050"/><path d="m240.5 401.84c-25.19-2.8208-51.216-13.052-71.233-28.002-7.5792-5.6604-25.267-22.436-25.267-23.964 0-0.42181 4.6454-11.254 10.323-24.072 5.6777-12.818 12.951-29.684 16.164-37.481 4.4327-10.759 6.3435-14.311 7.9269-14.736 2.8505-0.76535 40.536-0.73556 49.685 0.0393l7.4009 0.62676 4.3557 11.623c6.1399 16.384 15.157 34.931 21.756 44.747 6.7616 10.058 20.156 24.519 28.687 30.97 10.807 8.173 30.294 16.407 38.83 16.407 3.2208 0 5.8717 0.90553 5.8717 2.0058 0 1.0913-15.795 9.1462-25.44 12.974-20.434 8.1087-46.232 11.42-69.06 8.8632zm103.28-38.242c-8.652-3.5583-14.702-7.8316-22.424-15.84-8.0055-8.3019-12.762-15.05-20.657-29.311-7.2706-13.132-10.214-19.915-33.393-76.95-10.729-26.4-21.654-52.82-24.279-58.712-12.486-28.03-32.315-48.629-51.112-53.094-2.7041-0.64234-4.9166-1.4461-4.9166-1.7862 0-1.0673 17.131-8.5886 25.626-11.251 15.551-4.8736 24.461-6.0981 44.374-6.0981 20.413 0 29.122 1.2518 45.151 6.4899 44.468 14.532 78.787 48.467 93.341 92.299 5.2545 15.825 6.5832 23.618 7.1864 42.151 0.47068 14.462 0.23853 18.841-1.5548 29.329-4.9974 29.228-17.944 55.32-37.804 76.189-9.6672 10.159-10.314 10.376-19.539 6.5826zm-218.27-42.585c-28.932-57.608-14.401-132.73 33.68-174.11 6.1935-5.3306 6.9737-5.7212 9.806-4.9089 4.9607 1.4227 9.6373 4.7675 14.862 10.629 5.5558 6.2335 14.144 20.807 14.144 24.001 5e-5 1.952-13.82 34.054-39.982 92.871-5.6268 12.65-13.821 31.1-18.209 41-4.3883 9.9-8.3573 18.394-8.82 18.876-0.46592 0.48539-2.9113-3.2451-5.4805-8.3608zm58.036-61.945c-0.71969-1.1645 22.619-57.33 23.88-57.469 0.99634-0.10986 21.472 53.747 21.537 56.648 0.0361 1.6158-1.6813 1.75-22.402 1.75-12.74 0-22.689-0.40163-23.015-0.92908z" fill="#2d2d2d"/><path d="m239.5 400.84c-31.953-3.5782-62.509-18.363-85.75-41.492-4.8125-4.7892-8.75-9.1466-8.75-9.683s4.2321-10.469 9.4047-22.072c5.1726-11.603 12.19-27.846 15.595-36.096s6.6525-15.562 7.2178-16.25c0.7732-0.94042 6.8795-1.2283 24.655-1.1624 12.995 0.0482 25.802 0.38568 28.459 0.75l4.8312 0.66239 4.9397 13c6.2013 16.32 14.235 32.721 20.927 42.725 6.0945 9.1104 19.917 24.078 27.933 30.245 11.668 8.9782 27.629 15.972 39.261 17.203 3.1475 0.33316 5.4752 1.0063 5.1726 1.4959-0.7867 1.2729-19.233 10.411-26.641 13.197-18.84 7.0866-44.882 9.9814-67.254 7.476zm100.78-39.766c-14.581-7.0512-27.56-21.79-40.578-46.076-6.2442-11.65-9.9506-20.28-32.213-75-10.629-26.125-20.932-51.241-22.896-55.813-7.1137-16.559-15.692-29.202-27.406-40.389-8.26-7.8887-13.569-11.173-23.121-14.301l-5.4345-1.7799 5.9345-3.0106c16.147-8.1917 33.872-12.468 55.434-13.374 30.529-1.2827 55.102 4.6053 80.397 19.264 25.649 14.864 43.71 34.419 57.175 61.903 11.42 23.31 14.916 40.416 14.103 69-0.40925 14.381-1.0112 20.111-2.9938 28.5-5.7916 24.506-18.615 48.29-35.855 66.503-9.6276 10.171-10.572 10.363-22.545 4.5729zm-214.64-41.455c-8.203-16.862-11.957-31.074-13.636-51.618-3.1098-38.062 8.2227-74.593 32.493-104.75 5.9608-7.4053 17.258-18.406 21.149-20.594 2.5543-1.4363 11.842 3.9367 17.204 9.9529 5.6704 6.3621 14.153 20.837 14.153 24.15 4e-5 2.0345-21.022 50.775-44.525 103.23-4.8051 10.725-11.605 25.99-15.112 33.922-3.5063 7.9323-6.543 14.59-6.7481 14.795-0.20515 0.20515-2.4459-3.8881-4.9794-9.0961zm58.939-62.872c0.85221-2.7018 21.282-51.669 22.365-53.606 0.72545-1.2972 21.06 51.276 21.06 54.448 0 1.167-3.766 1.4071-22.067 1.4071h-22.067z"/></svg>
