<?xml version="1.0" encoding="UTF-8"?>
<!-- Created with Inkscape (http://www.inkscape.org/) -->
<svg width="512" height="512" version="1.2" viewBox="0 0 512 512" xml:space="preserve" xmlns="http://www.w3.org/2000/svg" xmlns:cc="http://creativecommons.org/ns#" xmlns:dc="http://purl.org/dc/elements/1.1/" xmlns:rdf="http://www.w3.org/1999/02/22-rdf-syntax-ns#"><title>ADOVA</title><g stroke-width="1.5041"><path d="m3.5593 256v-254.61h513.56v509.22h-513.56z" fill="#fdfdfd"/><path d="m240.02 479.01c-42.641-4.4536-84.169-21.029-116.66-46.565-16.485-12.955-35.218-32.307-35.218-36.382 0-1.8085 4.516-13.336 10.036-25.618 5.5196-12.282 16.351-37.157 24.068-55.279 9.5827-22.5 15.118-33.662 17.456-35.196 5.0432-3.3092 87.81-3.2753 91.025 0.0372 1.1798 1.2152 6.0265 11.982 10.77 23.926 16.599 41.792 31.318 67.001 51.614 88.393 13.333 14.053 24.953 22.642 41.991 31.043 15.896 7.836 20.187 9.1154 37.91 11.303 18.494 2.2828 19.657 4.228 7.0886 11.863-28.561 17.351-64.089 29.162-97.75 32.494-18.343 1.8164-24.788 1.8136-42.329-0.0185zm154.7-57.172c-14.055-4.7519-23.47-11.274-38.315-26.542-25.8-26.538-38.049-50.218-83.272-161-43.218-105.87-49.651-118.39-72.373-140.86-13.578-13.424-25.725-20.453-40.248-23.285-9.1379-1.7826-12.579-3.9701-10.744-6.8304 1.9845-3.0931 23.639-12.871 41.082-18.551 42.722-13.91 82.142-15.477 124.61-4.9541 40.616 10.065 74.093 28.774 104.12 58.186 32.247 31.588 51.363 65.848 62.262 111.58 5.5507 23.292 6.5124 57.28 2.3098 81.625-8.1605 47.274-27.802 86.208-59.881 118.7-8.3384 8.4451-16.18 15.337-17.426 15.313-1.2461-0.023-6.6995-1.541-12.119-3.3731zm-325.79-50.274c-0.85903-0.5416-4.6554-7.1062-8.4364-14.588-39.594-78.348-29.718-171.89 25.317-239.78 13.161-16.238 35.146-36.414 39.677-36.414 6.745 0 17.029 6.3798 26.743 16.59 10.08 10.595 22.642 29.989 24.314 37.537 1.0576 4.7742 0.15848 6.887-63.769 149.86-21.251 47.525-39.458 86.722-40.461 87.102-1.0027 0.38154-2.5259 0.25058-3.385-0.29101zm80.887-106.08c-1.3831-0.36321-2.9235-1.7167-3.4232-3.0079-0.51222-1.3235 7.5025-22.355 18.375-48.216 16.185-38.497 19.769-45.869 22.304-45.869 2.5747 0 5.4408 6.4142 19.406 43.434 9.0122 23.888 16.731 45.523 17.153 48.075 0.75168 4.546 0.61905 4.6624-6.4011 5.6164-7.8211 1.0629-63.345 1.0353-67.415-0.0335z" fill="#d1d1d1"/><path d="m238.44 477.53c-45.844-4.671-89.232-23.733-124.91-54.873-6.3926-5.58-14.814-13.719-18.715-18.086l-7.0915-7.9414 15.212-33.995c8.3669-18.697 19.403-44.104 24.527-56.461 5.1235-12.356 10.295-23.477 11.492-24.712 1.8372-1.8953 9.0066-2.2466 45.867-2.2466 36.911 0 44.009 0.34852 45.751 2.2466 1.1337 1.2356 4.9758 9.9972 8.5381 19.47 3.5623 9.473 10.469 25.563 15.349 35.756 27.726 57.916 69.184 92.93 117.4 99.148 7.2037 0.92911 13.669 2.221 14.366 2.8708 1.6109 1.5001-8.6699 8.5214-22.761 15.545-39.861 19.867-81.818 27.679-125.02 23.277zm157.07-56.48c-12.375-4.243-21.896-10.56-35.245-23.385-15.012-14.423-28.009-33.228-41.496-60.039-9.8276-19.538-15.806-33.594-55.244-129.89-26.589-64.92-31.098-74.589-43.198-92.611-17.339-25.825-38.174-41.888-60.053-46.297-5.6599-1.1406-8.6852-2.4901-8.6852-3.874 0-2.9509 21.636-13.441 40.074-19.43 21.088-6.8495 37.222-9.7132 60.512-10.74 63.784-2.8127 123.5 20.62 169.04 66.332 30.416 30.535 50.14 66.781 59.929 110.13 3.0238 13.391 3.5076 19.598 3.4896 44.751-0.0231 32.156-1.808 44.654-9.8717 69.121-6.3426 19.246-15.014 36.904-26.581 54.133-11.918 17.751-37.136 44.512-41.878 44.44-1.7674-0.0267-6.6208-1.2172-10.785-2.6451zm-326.58-51.523c-3.7157-4.5622-15.523-29.948-19.713-42.385-27.957-82.976-4.2637-174.48 60.47-233.55 8.394-7.6585 13.606-11.323 16.105-11.323 6.7935 0 16.585 6.1364 26.167 16.4 9.9714 10.679 23.794 33.023 23.794 38.463 1.1e-4 4.5039-99.679 228.74-103.3 232.4-1.5871 1.5979-2.2186 1.5979-3.5202 0zm79.615-106.81c-1.6364-1.9551 0.9951-9.3065 16.629-46.454 10.215-24.272 19.545-44.931 20.733-45.909 1.6898-1.3906 2.455-1.3094 3.517 0.37302 3.3197 5.2592 33.245 87.635 32.845 90.412-0.43549 3.0201-1.3524 3.109-36.114 3.4998-30.712 0.34536-35.937 0.0784-37.611-1.9216z" fill="#adadad"/><path d="m235.42 476.12c-35.849-4.02-69.844-16.725-100.68-37.628-15.751-10.676-43.178-35.909-44.436-40.881-0.54409-2.1495 3.8405-13.629 12.936-33.868 7.5674-16.839 18.216-41.398 23.663-54.578 5.4468-13.18 11.329-25.193 13.071-26.695 2.9293-2.5269 6.379-2.7028 45.958-2.3427 27.966 0.25435 43.242 0.94141 44.091 1.9831 0.71526 0.87668 5.1928 11.366 9.9502 23.31 16.932 42.512 30.635 65.451 52.502 87.893 27.148 27.862 50.797 40.121 86.198 44.684 7.1113 0.91655 7.2362 1.0194 4.6627 3.8392-4.0061 4.3892-37.309 20.206-53.371 25.347-7.8173 2.5024-20.051 5.5662-27.188 6.8083-16.17 2.8143-51.326 3.9252-67.352 2.1281zm155.67-57.609c-24.992-10.187-47.417-34.42-67.924-73.401-10.043-19.091-14.176-28.653-47.199-109.18-46.639-113.74-48.787-117.9-73.65-142.55-15.975-15.843-22.95-20.219-39.308-24.658-4.9414-1.3412-9.2371-3.1907-9.5462-4.1099-1.3569-4.0363 39.949-20.388 63.551-25.158 18.05-3.648 57.813-4.4155 77.72-1.5004 91.72 13.432 163.46 79.462 184.85 170.12 4.4208 18.739 5.5094 61.015 2.1535 83.627-6.6719 44.955-31.292 92.68-63.292 122.68-9.8608 9.2453-13.479 9.7919-27.362 4.1326zm-322.15-50.486c-3.9505-4.8536-14.77-28.566-19.289-42.271-7.4962-22.74-10.222-41.178-10.203-69.008 0.01894-27.597 2.63-46.044 9.5903-67.752 11.775-36.722 36.398-74.65 63.171-97.3 13.231-11.194 15.164-11.375 28.413-2.6526 13.256 8.7265 33.629 37.965 33.629 48.265 0 4.1085-17.475 44.736-60.392 140.41-8.4991 18.946-20.872 46.579-27.497 61.406-12.929 28.942-14.829 32.093-17.423 28.906zm79.633-107.45c0-1.6271 7.8864-21.69 17.526-44.584 9.639-22.894 17.869-42.467 18.287-43.496 2.3231-5.7096 5.7679 1.0882 20.695 40.839 8.8216 23.492 16.2 44.215 16.395 46.054l0.35506 3.3432-36.629 0.40106c-35.606 0.38984-36.629 0.31844-36.629-2.5575z" fill="#919191"/><path d="m237.24 475.91c-37.145-3.7825-77.594-19.494-107.96-41.936-11.19-8.27-39.626-34.992-39.626-37.238 0-0.5928 5.5552-13.46 12.345-28.594 6.7897-15.134 17.869-40.637 24.622-56.673 10.399-24.697 12.842-29.312 15.976-30.179 4.6373-1.283 65.326-1.3015 78.214-0.0239l9.5643 0.94822 7.4815 19.47c16.283 42.375 31.377 68.408 52.868 91.183 24.42 25.88 50.309 40.276 79.786 44.367 6.1808 0.8577 11.619 1.9386 12.084 2.4023 2.2934 2.2852-19.34 14.348-41.058 22.892-15.448 6.0783-39.976 11.797-58.325 13.599-17.798 1.7477-27.087 1.7032-45.973-0.21983zm158.27-56.353c-12.167-4.1717-21.838-10.513-34.321-22.503-13.14-12.622-22.559-25.464-34.853-47.516-11.002-19.737-14.976-28.837-51.586-118.15-36.09-88.046-40.035-96.803-51.436-114.14-19.337-29.415-39.351-44.732-66.124-50.606-5.6892-1.2483-4.1757-2.9993 7.7265-8.9395 44.77-22.344 102.53-27.775 153.74-14.455 80.182 20.859 140.78 83.205 160.22 164.84 5.551 23.316 6.5356 59.973 2.2731 84.62-5.5747 32.235-16.609 59.955-34.433 86.502-11.948 17.796-35.695 43.073-40.4 43.001-1.771-0.0267-6.6274-1.2172-10.792-2.6451zm-334.24-67.323c-12.932-26.782-18.981-49.161-21.426-79.275-4.5172-55.647 13.011-111.38 48.994-155.78 13.18-16.262 32.147-33.405 36.966-33.411 6.6713-9e-3 16.547 6.0942 25.451 15.73 9.4493 10.225 22.982 32.404 22.982 37.666 6e-5 2.891-29.456 70.123-83.067 189.59-10.257 22.858-19.432 41.561-20.388 41.561-0.95634 0-5.2372-7.2452-9.5132-16.1zm87.974-90.351c-1.4368-2.3051 35.454-89.749 37.864-89.749 2.1878 0 34.363 84.408 33.625 88.212-0.40801 2.1046-4.7669 2.4489-35.458 2.8013-24.465 0.28091-35.304-0.0995-36.031-1.2649z" fill="#6c6c6c"/><path d="m239.95 475.94c-39.366-4.3501-79.787-19.943-110.62-42.676-13.089-9.6497-38.159-34.148-38.159-37.29 0-1.2282 5.6899-14.859 12.644-30.29 6.9544-15.431 17.555-39.851 23.556-54.265 6.0011-14.414 11.893-27.219 13.093-28.455 1.8369-1.8916 8.8448-2.2466 44.362-2.2466 35.57 0 42.503 0.35204 44.242 2.2466 1.1337 1.2356 4.9794 9.9972 8.5462 19.47 15.775 41.897 33.554 71.954 55.77 94.288 24.035 24.161 47.024 36.188 79.378 41.525 4.0919 0.67503 7.677 1.9508 7.9668 2.8349 0.62326 1.9009-24.202 15.01-40.33 21.297-15.188 5.9203-41.074 11.824-60.201 13.729-17.623 1.7553-23.038 1.7325-40.245-0.16905zm158.6-55.791c-19.014-5.988-43.485-26.58-58.902-49.568-16.911-25.214-23.062-38.63-67.98-148.28-15.522-37.89-31.17-74.957-34.774-82.371-12.856-26.452-29.41-47.688-46.646-59.841-10.345-7.2938-16.194-9.9768-27.708-12.712-4.3615-1.0358-7.93-2.3884-7.93-3.0056 0-0.61721 6.6272-4.2122 14.727-7.9885 63.979-29.828 140.39-26.315 203.25 9.3445 24.385 13.834 51.193 37.76 69.019 61.599 11.431 15.287 27.278 46.935 32.386 64.681 7.9806 27.724 9.1509 36.167 9.0781 65.49-0.0618 24.896-0.49664 29.53-4.2869 45.68-7.456 31.768-21.508 62.215-39.39 85.351-8.4549 10.939-31.221 33.79-33.493 33.616-0.71847-0.055-4.0251-0.9564-7.3481-2.0029zm-331.71-58.002c-19.189-36.546-27.208-67.833-27.204-106.14 6e-3 -45.214 14.154-89.278 40.636-126.56 8.5826-12.082 25.784-30.724 36.753-39.829 7.5046-6.2302 7.6008-6.2607 13.86-4.4012 13.387 3.9772 42.456 39.941 42.319 52.355-0.0235 2.121-11.274 29.13-25.001 60.021-45.725 102.9-75.323 168.48-76.632 169.8-0.72619 0.72978-2.8043-1.5729-4.731-5.242zm85.135-99.644c-1.0384-0.41548-1.8724-1.8787-1.8532-3.2515 0.0541-3.8743 35.268-85.947 36.972-86.171 1.3524-0.17657 33.729 82.75 33.91 86.856 0.0411 0.92671-2.0492 2.1061-4.6454 2.621-5.5424 1.0991-61.618 1.0505-64.384-0.0559z" fill="#505050"/><path d="m236.93 474.43c-38.049-4.2247-77.36-19.548-107.6-41.939-11.448-8.4776-38.165-33.603-38.165-35.891 0-0.63175 7.0167-16.855 15.593-36.053 8.576-19.198 19.562-44.458 24.415-56.136 6.6954-16.114 9.5817-21.434 11.973-22.07 4.3056-1.1463 61.228-1.1016 75.048 0.0588l11.179 0.9387 6.5792 17.408c9.2741 24.538 22.894 52.316 32.862 67.018 10.213 15.064 30.445 36.722 43.331 46.384 16.324 12.241 45.758 24.573 58.652 24.573 4.8649 0 8.869 1.3562 8.869 3.0041 0 1.6344-23.858 13.698-38.426 19.431-30.865 12.144-69.832 17.104-104.31 13.274zm156-57.275c-13.069-5.3293-22.207-11.729-33.871-23.724-12.092-12.434-19.277-22.54-31.202-43.899-10.982-19.668-15.428-29.827-50.439-115.25-16.206-39.539-32.708-79.109-36.673-87.933-18.86-41.981-48.811-72.832-77.203-79.519-4.0845-0.96204-7.4264-2.1658-7.4264-2.6752 0-1.5985 25.876-12.863 38.707-16.851 23.489-7.2992 36.948-9.1332 67.026-9.1332 30.833 0 43.988 1.8748 68.199 9.72 67.168 21.765 119.01 72.589 140.99 138.24 7.9368 23.701 9.9437 35.373 10.855 63.13 0.71095 21.66 0.36029 28.218-2.3485 43.926-7.5484 43.775-27.104 82.853-57.102 114.11-14.602 15.215-15.579 15.54-29.513 9.8588zm-329.69-63.78c-43.701-86.28-21.752-198.79 50.873-260.77 9.3551-7.9837 10.534-8.5687 14.812-7.3521 7.493 2.1308 14.557 7.1403 22.449 15.919 8.3918 9.336 21.364 31.163 21.364 35.946 7e-5 2.9235-20.875 51.003-60.392 139.09-8.4991 18.946-20.876 46.579-27.504 61.406-6.6284 14.827-12.623 27.549-13.322 28.271-0.70375 0.72697-4.3974-4.8602-8.2781-12.522zm87.662-92.775c-1.0871-1.7441 34.165-85.864 36.07-86.072 1.5049-0.16454 32.433 80.497 32.531 84.842 0.0544 2.42-2.5396 2.621-33.838 2.621-19.243 0-34.271-0.60151-34.763-1.3915z" fill="#2d2d2d"/><path d="m235.42 472.93c-48.264-5.3591-94.418-27.502-129.52-62.143-7.2691-7.1728-13.217-13.699-13.217-14.502 0-0.80338 6.3925-15.679 14.206-33.057 7.813-17.378 18.413-41.705 23.556-54.061 5.1432-12.356 10.048-23.307 10.902-24.338 1.1679-1.4085 10.391-1.8396 37.241-1.7409 19.629 0.0722 38.973 0.57764 42.986 1.1233l7.2974 0.99206 7.4613 19.47c9.3669 24.443 21.502 49.006 31.61 63.99 9.2056 13.645 30.084 36.062 42.192 45.298 17.624 13.447 41.733 23.921 59.302 25.765 4.7542 0.49898 8.2701 1.5072 7.8131 2.2404-1.1883 1.9064-29.051 15.593-40.24 19.765-28.457 10.614-67.793 14.949-101.59 11.197zm152.23-59.558c-22.024-10.561-41.628-32.635-61.292-69.008-9.4317-17.448-15.03-30.374-48.657-112.33-16.055-39.128-31.617-76.744-34.584-83.592-10.745-24.801-23.702-43.736-41.396-60.491-12.476-11.815-20.496-16.734-34.924-21.419l-8.2086-2.6658 8.9639-4.509c24.39-12.269 51.163-18.673 83.731-20.03 46.113-1.9211 83.23 6.8974 121.44 28.852 38.742 22.262 66.023 51.55 86.361 92.713 17.25 34.912 22.53 60.531 21.302 103.34-0.61815 21.539-1.5274 30.12-4.522 42.685-8.748 36.703-28.117 72.324-54.158 99.602-14.542 15.233-15.969 15.521-34.054 6.8489zm-324.21-62.087c-12.39-25.254-18.061-46.54-20.597-77.309-4.6973-57.006 12.42-111.72 49.08-156.88 9.0036-11.091 26.068-27.567 31.945-30.844 3.8582-2.1512 17.887 5.896 25.986 14.907 8.565 9.5286 21.378 31.208 21.378 36.17 6e-5 3.0471-31.753 76.046-67.254 154.61-7.2579 16.063-17.529 38.925-22.826 50.805-5.2962 11.88-9.883 21.852-10.193 22.159-0.30987 0.30725-3.6945-5.8232-7.5212-13.623zm89.026-94.164c1.2872-4.0465 32.146-77.385 33.782-80.286 1.0958-1.9428 31.81 76.796 31.81 81.547 0 1.7478-5.6884 2.1074-33.332 2.1074h-33.332z"/></g><metadata><rdf:RDF><cc:Work rdf:about=""><dc:title>ADOVA</dc:title></cc:Work></rdf:RDF></metadata></svg>
