<?xml version="1.0" encoding="UTF-8"?>
<!-- Created with Inkscape (http://www.inkscape.org/) -->
<svg width="512" height="512" version="1.2" baseProfile="tiny-ps" viewBox="0 0 512 512" xml:space="preserve" xmlns="http://www.w3.org/2000/svg" xmlns:cc="http://creativecommons.org/ns#" xmlns:dc="http://purl.org/dc/elements/1.1/" xmlns:rdf="http://www.w3.org/1999/02/22-rdf-syntax-ns#"><title>ADOVA</title><path d="m-3.3981 256v-259.19h518.8v518.38h-518.8z" fill="#fdfdfd" stroke-width="1.5253"/><path d="m226.65 503c-54.702-6.1208-107.01-31.411-146.8-70.975-8.2387-8.1923-14.979-15.646-14.979-16.564 0-0.91758 7.2451-17.908 16.1-37.756 8.8552-19.848 20.869-47.633 26.698-61.745 5.8292-14.112 11.389-26.62 12.356-27.797 1.3236-1.6087 11.777-2.1011 42.208-1.9884 22.247 0.0825 44.171 0.65974 48.72 1.2829l8.2707 1.1331 8.4565 22.238c10.616 27.917 24.369 55.972 35.826 73.085 10.433 15.584 34.097 41.187 47.82 51.736 19.975 15.358 47.299 27.321 67.212 29.427 5.3884 0.56992 9.3732 1.7214 8.8552 2.5589-1.3468 2.1774-32.926 17.809-45.608 22.575-32.253 12.122-76.835 17.074-115.13 12.788zm172.53-68.023c-24.962-12.062-47.181-37.274-69.467-78.817-10.69-19.928-17.035-34.691-55.147-128.29-18.196-44.689-35.834-87.652-39.197-95.473-12.178-28.326-26.864-49.952-46.917-69.089-14.141-13.494-23.229-19.112-39.582-24.463l-9.3035-3.0447 10.159-5.1499c27.643-14.013 57.987-21.328 94.9-22.877 52.264-2.1942 94.331 7.8777 137.63 32.953 43.91 25.426 74.829 58.876 97.88 105.89 19.55 39.874 25.535 69.135 24.143 118.03-0.7006 24.6-1.7311 34.402-5.1252 48.752-9.9148 41.92-31.868 82.604-61.382 113.76-16.482 17.398-18.099 17.727-38.596 7.8223zm-367.45-70.912c-14.043-28.844-20.47-53.155-23.344-88.297-5.3238-65.108 14.077-127.6 55.626-179.18 10.205-12.667 29.545-31.485 36.206-35.228 4.3728-2.4569 20.273 6.7341 29.452 17.025 9.7074 10.883 24.229 35.643 24.229 41.311 7e-5 3.4802-35.988 86.855-76.224 176.58-8.226 18.346-19.867 44.458-25.871 58.026-6.0026 13.569-11.201 24.957-11.552 25.308-0.35119 0.35092-4.1872-6.6509-8.5244-15.56zm100.9-107.55c1.4589-4.6216 36.433-88.384 38.287-91.697 1.2419-2.219 36.053 87.712 36.053 93.138 0 1.9963-6.4472 2.407-37.777 2.407h-37.777z" stroke-width="1.7113"/><metadata><rdf:RDF><cc:Work rdf:about=""><dc:title>ADOVA</dc:title></cc:Work></rdf:RDF></metadata></svg>
